Coordinates
version=1
nRows=8
nColumns=63
inDegrees=yes

Units are S.I. units (second, meters, Newtons, ...)
If the header above contains a line with 'inDegrees', this indicates whether rotational values are in degrees (yes) or radians (no).

endheader
time	pelvis_tilt	pelvis_list	pelvis_rotation	pelvis_tx	pelvis_ty	pelvis_tz	hip_flexion_r	hip_adduction_r	hip_rotation_r	knee_angle_r	knee_angle_r_beta	ankle_angle_r	subtalar_angle_r	mtp_angle_r	hip_flexion_l	hip_adduction_l	hip_rotation_l	knee_angle_l	knee_angle_l_beta	ankle_angle_l	subtalar_angle_l	mtp_angle_l	L5_S1_Flex_Ext	L5_S1_Lat_Bending	L5_S1_axial_rotation	L4_L5_Flex_Ext	L4_L5_Lat_Bending	L4_L5_axial_rotation	L3_L4_Flex_Ext	L3_L4_Lat_Bending	L3_L4_axial_rotation	L2_L3_Flex_Ext	L2_L3_Lat_Bending	L2_L3_axial_rotation	L1_L2_Flex_Ext	L1_L2_Lat_Bending	L1_L2_axial_rotation	L1_T12_Flex_Ext	L1_T12_Lat_Bending	L1_T12_axial_rotation	Abs_r3	Abs_r2	Abs_r1	Abs_t1	Abs_t2	neck_flexion	neck_bending	neck_rotation	arm_flex_r	arm_add_r	arm_rot_r	elbow_flex_r	pro_sup_r	wrist_flex_r	wrist_dev_r	arm_flex_l	arm_add_l	arm_rot_l	elbow_flex_l	pro_sup_l	wrist_flex_l	wrist_dev_l
1.900000	-0.166607	-9.319686	94.259953	0.180439	0.527075	1.004060	15.653233	-0.969952	-5.387168	19.966826	0.348487	44.619724	11.709244	0.000000	14.254736	1.732186	11.680803	16.649031	0.290580	38.069902	-14.107950	0.000000	-0.071170	0.133864	0.032332	-0.132169	0.178039	0.034352	-0.116925	0.325477	0.034352	-0.081340	0.325477	0.028290	-0.066088	0.272976	0.026269	-0.040666	0.207356	0.024249	-0.508358	1.514298	0.179819	0.000000	0.000000	27.180804	4.240524	13.429874	18.557952	-10.094833	171.329788	0.907070	5.671904	-11.188763	-9.363743	11.607612	-8.428457	145.809862	5.305607	2.761426	-12.877182	-13.071084
1.916667	-0.170913	-9.433179	94.145244	0.180579	0.527589	1.003375	15.816628	-0.886508	-4.957061	20.081370	0.350486	44.498712	11.248410	0.000000	14.272664	1.728085	11.796478	16.488433	0.287777	37.939455	-14.381991	0.000000	-0.055675	0.129944	0.069526	-0.103394	0.172826	0.073872	-0.091469	0.315946	0.073872	-0.063631	0.315946	0.060835	-0.051700	0.264982	0.056490	-0.031813	0.201283	0.052145	-0.397683	1.469952	0.386684	0.000000	0.000000	27.055767	4.141908	13.169356	18.945742	-10.401483	171.915419	1.070505	5.607331	-12.455789	-9.893831	11.707483	-8.541248	149.231395	4.412414	2.769705	-15.183991	-13.236558
1.933333	-0.174432	-9.541564	93.988683	0.180775	0.528236	1.002609	15.995577	-0.770749	-4.401728	20.229718	0.353075	44.356606	10.670255	0.000000	14.272176	1.708546	11.843267	16.330432	0.285020	37.766832	-14.667120	0.000000	-0.039059	0.126083	0.111606	-0.072536	0.167690	0.118581	-0.064170	0.306557	0.118581	-0.044640	0.306557	0.097655	-0.036270	0.257108	0.090680	-0.022318	0.195302	0.083704	-0.278993	1.426272	0.620719	0.000000	0.000000	26.856474	4.040204	12.973202	19.314843	-10.772337	171.211544	1.419146	5.436722	-13.342699	-10.623499	11.830622	-8.676731	152.396499	3.514820	2.769948	-17.436217	-13.546665
1.950000	-0.152707	-9.613427	93.843169	0.180929	0.529019	1.001728	16.151263	-0.636112	-3.890397	20.412938	0.356273	44.238703	10.126227	0.000000	14.243589	1.667008	11.871080	16.222956	0.283144	37.566642	-14.978710	0.000000	-0.024649	0.125779	0.149819	-0.045777	0.167286	0.159183	-0.040497	0.305818	0.159183	-0.028172	0.305818	0.131092	-0.022890	0.256488	0.121728	-0.014085	0.194831	0.112364	-0.176069	1.422833	0.833249	0.000000	0.000000	26.566403	3.962840	12.880485	19.671329	-11.218546	169.348405	1.976524	5.157442	-13.961861	-11.521597	11.981339	-8.811268	155.575382	2.608322	2.729228	-19.687081	-13.922210
1.966667	-0.133723	-9.652583	93.659829	0.181104	0.529906	1.000641	16.278001	-0.480036	-3.284453	20.620689	0.359899	44.118330	9.498513	0.000000	14.155991	1.615232	11.808878	16.124266	0.281422	37.324884	-15.277516	0.000000	-0.009856	0.126079	0.190688	-0.018304	0.167685	0.202606	-0.016193	0.306548	0.202606	-0.011265	0.306548	0.166852	-0.009153	0.257100	0.154934	-0.005632	0.195296	0.143016	-0.070404	1.426229	1.060548	0.000000	0.000000	26.174364	3.849498	12.838242	19.958410	-11.714286	166.304333	2.647631	4.767193	-14.088611	-12.576535	12.130668	-8.969327	158.342910	1.765982	2.616483	-21.694335	-14.484497
1.983333	-0.134681	-9.650618	93.407756	0.181350	0.530843	0.999369	16.397254	-0.309092	-2.519794	20.905592	0.364871	44.006566	8.740858	0.000000	14.015219	1.569957	11.665052	16.070344	0.280480	37.050962	-15.597829	0.000000	0.003969	0.124571	0.243173	0.007371	0.165679	0.258371	0.006521	0.302882	0.258371	0.004536	0.302882	0.212776	0.003686	0.254025	0.197578	0.002268	0.192960	0.182380	0.028351	1.409170	1.352454	0.000000	0.000000	25.678485	3.713534	12.778123	20.118002	-12.212258	162.251537	3.293501	4.254572	-13.711688	-13.762434	12.281990	-9.159495	160.405843	1.052072	2.511728	-23.441396	-15.175852
2.000000	-0.142911	-9.608402	93.146139	0.181592	0.531762	0.997929	16.502646	-0.134168	-1.711972	21.268382	0.371203	43.915973	7.926515	0.000000	13.854370	1.532885	11.470319	16.109256	0.281160	36.780392	-15.904991	0.000000	0.017629	0.123143	0.296583	0.032739	0.163780	0.315119	0.028963	0.299410	0.315119	0.020148	0.299410	0.259510	0.016371	0.251114	0.240974	0.010073	0.190749	0.222437	0.125924	1.393021	1.649504	0.000000	0.000000	25.064574	3.562075	12.768904	20.115104	-12.694556	157.181012	3.842885	3.605595	-12.715239	-15.063734	12.424929	-9.354314	161.824027	0.449945	2.382273	-24.865983	-15.946654
2.016667	-0.166389	-9.506903	92.862300	0.181825	0.532635	0.996365	16.578665	0.051203	-0.797430	21.716531	0.379025	43.808230	6.960485	0.000000	13.671078	1.507252	11.205509	16.268293	0.283935	36.558141	-16.152861	0.000000	0.027683	0.120523	0.353691	0.051410	0.160295	0.375797	0.045481	0.293039	0.375797	0.031639	0.293039	0.309480	0.025707	0.245770	0.287374	0.015818	0.186690	0.265268	0.197738	1.363379	1.967124	0.000000	0.000000	24.324829	3.296836	12.630466	19.964864	-13.145334	151.845616	4.243769	2.887420	-11.381180	-16.426844	12.557808	-9.571283	162.222344	0.043178	2.236871	-25.942520	-16.848075
